<svg xmlns="http://www.w3.org/2000/svg" xmlns:xlink="http://www.w3.org/1999/xlink" width="80" height="80" viewBox="0 0 80 80"><g fill="#CE253D"><path d="M74.9 57.1c0-3.4-2-6.9-5.8-6.9h-1.6c-.6 0-1.1-.2-1.6-.6l-7.5-6.2a4.8 4.8 0 0 0-3-1.1H41.5c-1.6 0-3.1.8-4 2.2L35.9 47c-.5.7-1.3 1.2-2.1 1.2a4.8 4.8 0 0 0-4.8 5v4a5 5 0 0 0 3.9 4.9c.4 2.3 2.4 4 4.7 4 2.3 0 4.3-1.7 4.7-4h19.2c.5 2.3 2.4 4 4.7 4 2.4 0 4.3-1.7 4.7-4a5 5 0 0 0 4-5zM37.6 64c-1.6 0-2.8-1.3-2.8-3 0-1.6 1.3-3 2.8-3 1.6 0 2.8 1.3 2.8 3 0 1.6-1.3 3-2.8 3zm28.7 0c-1.6 0-2.8-1.3-2.8-3 0-1.6 1.3-3 2.8-3 1.6 0 2.8 1.3 2.8 3 0 1.6-1.3 3-2.8 3zm4.6-4.1a4.8 4.8 0 0 0-4.7-3.8 4.8 4.8 0 0 0-4.7 4H42.3c-.5-2.3-2.4-4-4.7-4a4.8 4.8 0 0 0-4.7 3.8 3 3 0 0 1-2-2.8v-4c0-1.6 1.3-3 2.8-3 1.5 0 3-.8 3.8-2.1l1.6-2.5c.5-.8 1.4-1.3 2.3-1.3h13.8a3 3 0 0 1 1.8.6l7.5 6.2c.8.7 1.8 1 2.9 1H69c2.8 0 3.8 2.9 3.8 4.9.1 1.7-.8 2.6-1.9 3z"/><path d="M60.5 50.1H52v-3c0-.6-.4-1-1-1s-1 .4-1 1v4c0 .6.4 1 1 1h9.6c.6 0 1-.4 1-1s-.5-1-1.1-1zm-13.4 0H41l1.2-2.5c.2-.5 0-1.1-.5-1.3-.5-.2-1.1 0-1.3.5l-1.9 4c-.1.3-.1.7.1 1s.5.5.8.5H47c.6 0 1-.4 1-1s-.3-1.2-.9-1.2zm7.7 4h-1.9c-.6 0-1 .4-1 1s.4 1 1 1h1.9c.6 0 1-.4 1-1s-.5-1-1-1z"/><path d="M28.8 64C20.3 61.4 8 53.2 8 45.4V22.3L28.5 16 49 22.3v14.8c0 .6.4 1 1 1s1-.4 1-1V21.5c0-.4-.3-.8-.7-1L28.8 14a.6.6 0 0 0-.6 0L6.7 20.6c-.4.1-.7.5-.7 1v23.9C6 55 20.5 63.5 28.2 66h.3c.4 0 .8-.3 1-.7.1-.5-.2-1.1-.7-1.3z"/></g></svg>
