<svg xmlns="http://www.w3.org/2000/svg" viewBox="0 0 500 500"><path fill="#E31936" d="M457 426.5H50.2v-357H457v357z"/><path fill="#FFF" d="M223.9 131.8c18.6 0 33.1 7.7 45.8 24.4 13.5 17.9 25 47.5 33.2 85.4-10.3 51.4-20.4 82.4-32.6 100.3-12.4 18.2-28.7 27.8-47 27.8-21.3 0-37.5-9.6-49.3-29.3-12.4-20.7-18.7-51.7-18.7-92.1 0-37.1 6.7-66.5 19.8-87.6 12.3-19.7 27.8-28.9 48.8-28.9M351.3 0C433.3 0 500 66.7 500 148.7v202.5c0 82-66.7 148.8-148.7 148.8H148.8C66.7 500 0 433.2 0 351.2V148.7C0 66.7 66.7 0 148.8 0h202.5m91.8 311.4h-35.3l-.2 2.2c-.7 8.7-6.1 17.5-15.2 17.5-6.9 0-12.4-2.6-17-7.8-5.4-6.3-10.3-13.8-15.3-27.4 14-47.6 57.3-200 57.3-200h-82.1s-7.6 35.7-14.4 68.3c-.3-.8-.7-1.6-1.1-2.3-6.8-14.6-17.7-30.9-29.9-42.3C268.9 99.7 244 90 214 90c-41.5 0-76.5 15.3-104.2 45.6-27.6 30.1-42.1 68.6-42.1 111.5 0 47.8 13.8 87 41.1 116.6 28.5 30.9 62.5 45.3 107 45.3 26 0 50.7-7.7 73.7-22.9 14.9-9.8 28.4-23.4 41.2-41 5.4 17.4 10.8 29.3 17.3 38.2 10.5 14.4 26.2 22.6 43.1 22.6 17.6 0 33.6-9 41.8-23.5 7.3-12.8 10.3-28.8 10.3-55v-16z"/></svg>