<svg width="31" height="36" fill="none" xmlns="http://www.w3.org/2000/svg"><path clip-rule="evenodd" d="M25.65 2.458h-2.9V1H8.25v1.458h-2.9c-.8 0-1.45.654-1.45 1.459v30.625h8.7V24.333h5.8v10.209h8.7V3.917c0-.805-.648-1.459-1.45-1.459z" stroke="#CE253D" stroke-width="2" stroke-linecap="round" stroke-linejoin="round"/><path clip-rule="evenodd" d="M6.801 28.708h2.9v-4.375h-2.9v4.375zM21.3 28.708h2.9v-4.375h-2.9v4.375zM6.801 19.958h2.9v-4.375h-2.9v4.375zM21.3 19.958h2.9v-4.375h-2.9v4.375zM6.801 11.208h2.9V6.833h-2.9v4.375zM21.3 11.208h2.9V6.833h-2.9v4.375zM14.05 19.958h2.9v-4.375h-2.9v4.375zM14.05 11.208h2.9V6.833h-2.9v4.375z" stroke="#CE253D" stroke-width="2" stroke-linecap="round" stroke-linejoin="round"/><path d="M1 34.542h2.9M27.1 34.542H30" stroke="#CE253D" stroke-width="2" stroke-linecap="round" stroke-linejoin="round"/></svg>