<svg xmlns="http://www.w3.org/2000/svg" width="40" height="40" fill="none"><path stroke="#CE253D" stroke-linecap="round" stroke-linejoin="round" stroke-width="2" d="M12.2 18.9a20 20 0 0 0 9.4 9.7l3.7-3c.4-.4 1-.6 1.6-.4 1.7.6 3.6 1 5.5 1 .9 0 1.6.7 1.6 1.6v5.6c0 .9-.7 1.6-1.6 1.6A27 27 0 0 1 6 7.6C6 6.7 6.7 6 7.6 6H13c.9 0 1.6.7 1.6 1.6 0 2 .3 4 .8 5.8.2.5 0 1.2-.3 1.6L12.2 19z" clip-rule="evenodd"/><path stroke="#CE253D" stroke-linecap="round" stroke-linejoin="round" stroke-width="2" d="M23.1 6c6 0 10.9 5 10.9 11.3M23.1 12.4c2.6 0 4.7 2.2 4.7 4.9"/></svg>
