<svg width="37" height="35" viewBox="0 0 37 35" fill="none" xmlns="http://www.w3.org/2000/svg"><path d="M22.555 32.545H5.245c-1.594 0-2.885-1.301-2.885-2.909V4.91C2.36 3.302 3.65 2 5.245 2h27.408c1.594 0 2.885 1.302 2.885 2.91v18.908M2.36 7.818h33.178" stroke="#CE253D" stroke-width="2" stroke-linecap="round" stroke-linejoin="round"/><path fill-rule="evenodd" clip-rule="evenodd" d="M5.966 4.909a.725.725 0 0 1-.721.727.725.725 0 0 1-.722-.727c0-.402.324-.727.722-.727.398 0 .721.325.721.727zM8.851 4.909a.725.725 0 0 1-.721.727.725.725 0 0 1-.721-.727c0-.402.323-.727.72-.727.4 0 .722.325.722.727zM11.736 4.909a.725.725 0 0 1-.721.727.725.725 0 0 1-.722-.727c0-.402.324-.727.722-.727.398 0 .721.325.721.727z" fill="#CE253D"/><path clip-rule="evenodd" d="M25.44 18v14.545l2.885-2.909L30.548 34l2.826-1.514-2.164-4.304h4.328L25.44 18z" stroke="#CE253D" stroke-width="2" stroke-linecap="round" stroke-linejoin="round"/></svg>