<svg height="480pt" viewBox="-12 0 480 480" width="480pt" xmlns="http://www.w3.org/2000/svg" fill="#d02138"><path d="m108.25 440c.027344 22.082031 17.917969 39.972656 40 40h160c22.078125-.027344 39.972656-17.917969 40-40v-400c-.027344-22.082031-17.921875-39.9726562-40-40h-160c-22.082031.0273438-39.972656 17.917969-40 40zm200 24h-160c-13.253906 0-24-10.746094-24-24v-56h208v56c0 13.253906-10.746094 24-24 24zm-184-152v-232h208v288h-208zm24-296h160c13.253906 0 24 10.746094 24 24v24h-208v-24c0-13.253906 10.746094-24 24-24zm0 0"/><path d="m228.25 400c-13.253906 0-24 10.746094-24 24s10.746094 24 24 24 24-10.746094 24-24-10.746094-24-24-24zm0 32c-4.417969 0-8-3.582031-8-8s3.582031-8 8-8 8 3.582031 8 8-3.582031 8-8 8zm0 0"/><path d="m212.25 32h64v16h-64zm0 0"/><path d="m180.25 32h16v16h-16zm0 0"/><path d="m164.25 352h128c22.089844 0 40-17.910156 40-40s-17.910156-40-40-40h-128c-22.09375 0-40 17.910156-40 40s17.90625 40 40 40zm152-40c0 13.253906-10.746094 24-24 24h-96.207031c10.9375-14.128906 10.9375-33.871094 0-48h96.207031c13.253906 0 24 10.746094 24 24zm-152-24c13.253906 0 24 10.746094 24 24s-10.746094 24-24 24-24-10.746094-24-24 10.746094-24 24-24zm0 0"/><path d="m260.25 136c0-17.671875-14.328125-32-32-32s-32 14.328125-32 32 14.328125 32 32 32 32-14.328125 32-32zm-32 16c-8.835938 0-16-7.164062-16-16s7.164062-16 16-16 16 7.164062 16 16-7.164062 16-16 16zm0 0"/><path d="m196.25 248h64c4.417969 0 8-3.582031 8-8v-48c0-13.253906-10.746094-24-24-24h-32c-13.253906 0-24 10.746094-24 24v48c0 4.417969 3.582031 8 8 8zm8-56c0-4.417969 3.582031-8 8-8h32c4.417969 0 8 3.582031 8 8v40h-48zm0 0"/><path d="m92.25 152-5.128906-6.152344c-13.832032 12.148438-22.472656 29.140625-24.144532 47.472656-.0625 20.039063 8.550782 39.125 23.617188 52.335938l11.3125-11.3125c-11.757812-10.078125-18.652344-24.695312-18.953125-40.175781 1.464844-13.875 8.035156-26.707031 18.441406-36zm0 0"/><path d="m62.59375 122.34375c-.695312.695312-68.542969 70.214844-.320312 146.96875l11.953124-10.625c-58.082031-65.34375-2.695312-122.632812-.304687-125.039062l-5.671875-5.648438zm0 0"/><path d="m29.976562 284.960938 12.542969-9.921876c-59.359375-75.128906-2.277343-154.941406.1875-158.304687l-12.90625-9.476563c-.671875.917969-66.832031 92.902344.175781 177.703126zm0 0"/><path d="m369.90625 245.65625c15.066406-13.210938 23.675781-32.296875 23.613281-52.335938-1.667969-18.332031-10.3125-35.324218-24.140625-47.472656l-10.257812 12.304688c10.417968 9.234375 16.988281 22.046875 18.398437 35.894531-.253906 15.527344-7.148437 30.195313-18.941406 40.296875zm0 0"/><path d="m382.273438 258.6875 11.953124 10.625c68.222657-76.753906.375-146.273438-.320312-146.96875l-11.328125 11.304688c2.390625 2.40625 57.773437 59.695312-.304687 125.039062zm0 0"/><path d="m413.792969 116.734375c2.464843 3.363281 59.542969 83.203125.183593 158.304687l12.542969 9.921876c67.011719-84.800782.851563-176.800782.179688-177.703126zm0 0"/><path d="m220.25 304h16v16h-16zm0 0"/><path d="m252.25 304h16v16h-16zm0 0"/><path d="m284.25 304h16v16h-16zm0 0"/></svg>